<?xml version="1.0" standalone="no"?>
<!DOCTYPE svg PUBLIC "-//W3C//DTD SVG 20010904//EN"
 "http://www.w3.org/TR/2001/REC-SVG-20010904/DTD/svg10.dtd">
<svg version="1.0" xmlns="http://www.w3.org/2000/svg"
 width="300.000000pt" height="300.000000pt" viewBox="0 0 300.000000 300.000000"
 preserveAspectRatio="xMidYMid meet">
<metadata>
Created by potrace 1.11, written by Peter Selinger 2001-2013
</metadata>
<g transform="translate(0.000000,300.000000) scale(0.100000,-0.100000)"
fill="#000000" stroke="none">
<path d="M2400 2734 c-58 -8 -124 -18 -147 -24 -22 -5 -58 -12 -78 -16 -53 -8
-256 -69 -296 -88 -65 -32 -187 -140 -459 -409 -384 -380 -505 -487 -551 -487
-15 0 -67 21 -115 47 -151 79 -218 111 -248 119 l-30 7 21 -29 c11 -16 47 -81
80 -144 144 -276 220 -379 358 -485 61 -46 195 -130 195 -121 0 2 -14 19 -31
37 -56 63 -156 194 -184 242 -42 73 -32 102 68 202 45 45 118 110 162 144 44
34 87 68 95 74 326 257 543 413 765 549 271 167 553 300 764 361 46 13 80 26
75 29 -19 11 -345 5 -444 -8z"/>
<path d="M2775 2522 c-60 -27 -135 -59 -165 -72 -206 -89 -755 -383 -1047
-561 -188 -115 -517 -337 -598 -402 l-29 -25 49 -24 c73 -37 241 -92 400 -132
120 -29 191 -44 348 -70 47 -8 188 -18 273 -19 66 0 90 4 130 23 76 37 191
158 283 299 70 108 191 334 228 426 7 17 22 53 34 80 26 61 89 248 84 253 -5
5 -362 -177 -540 -275 -209 -116 -339 -191 -570 -328 -188 -112 -266 -163
-200 -132 17 8 107 47 200 87 94 40 188 80 210 90 22 10 69 30 105 45 36 14
79 32 95 40 109 49 269 115 272 112 6 -6 -64 -165 -104 -237 -96 -172 -197
-266 -322 -300 -43 -11 -192 -15 -240 -5 -12 2 -43 7 -67 9 -129 16 -378 81
-368 97 3 5 40 33 82 62 306 208 823 502 1277 728 121 60 234 123 251 139 37
36 72 141 47 140 -5 0 -57 -22 -118 -48z"/>
<path d="M106 2105 c10 -51 65 -237 82 -279 30 -77 61 -115 138 -167 68 -45
286 -159 307 -159 4 0 -2 10 -15 23 -30 28 -190 206 -248 276 -25 29 -50 59
-55 65 -14 15 -165 204 -193 241 l-22 30 6 -30z"/>
<path d="M0 782 c0 -98 0 -98 33 -130 18 -18 35 -32 37 -32 3 0 5 48 5 107 l0
108 78 3 c57 2 77 0 78 -10 1 -7 2 -29 3 -48 l1 -35 -62 -3 c-35 -2 -63 -5
-63 -8 0 -3 45 -51 100 -107 l100 -102 0 45 c0 39 -5 51 -35 80 -19 19 -35 38
-35 41 0 3 16 5 35 4 l36 -2 -3 91 -3 91 -152 2 -153 2 0 -97z"/>
<path d="M358 872 c-2 -4 -3 -61 -3 -127 l0 -120 139 -3 140 -3 -19 21 c-15
17 -30 20 -102 20 l-83 0 0 35 0 35 95 0 c88 0 95 1 95 20 0 19 -7 20 -95 20
l-95 0 0 35 0 35 83 0 c70 0 87 3 101 19 18 19 16 20 -117 20 -75 1 -137 -2
-139 -7z"/>
<path d="M670 750 l0 -130 38 0 c38 0 39 1 37 35 -2 19 2 38 9 43 6 5 50 8 98
8 l86 -2 4 46 c2 25 1 63 -2 85 l-5 40 -132 2 -133 3 0 -130z m195 43 c1 -24
-1 -44 -4 -44 -3 -1 -30 -2 -58 -3 -56 -2 -55 -3 -55 54 0 17 1 32 1 35 1 4
27 5 58 3 l57 -3 1 -42z"/>
<path d="M975 753 l0 -128 141 -2 141 -2 -1 127 -1 127 -36 3 -37 3 0 -73 c0
-40 -1 -90 -1 -110 l-1 -38 -65 0 -65 0 0 110 0 110 -38 0 -37 0 0 -127z"/>
<path d="M1290 749 l0 -129 135 0 c101 0 135 3 136 13 4 46 -1 128 -9 144 -5
10 -8 29 -7 43 5 55 -5 59 -135 58 l-120 -1 0 -128z m198 59 c-3 -31 -4 -32
-48 -31 -76 1 -77 2 -74 26 1 12 3 25 3 30 1 4 28 7 62 7 l60 0 -3 -32z m-21
-73 c18 -4 22 -12 21 -40 l-1 -35 -62 0 -61 0 2 33 c1 17 2 34 3 37 1 8 70 11
98 5z"/>
<path d="M1603 751 l1 -131 111 0 c99 0 114 2 130 20 18 20 17 20 -73 20 -67
0 -92 3 -93 13 0 6 -1 55 -2 107 l-2 95 -36 3 -36 3 0 -130z"/>
<path d="M1890 750 l0 -131 38 3 37 3 0 125 0 125 -37 3 -38 3 0 -131z"/>
<path d="M2005 752 l0 -127 121 -3 c110 -2 122 -1 139 18 18 20 18 20 -83 20
l-102 0 0 91 0 91 43 -2 c103 -4 132 0 144 19 12 19 8 20 -125 20 l-137 0 0
-127z"/>
<path d="M2400 794 l0 -87 44 -43 43 -44 97 0 97 0 -3 128 -3 127 -137 3 -138
3 0 -87z m207 -46 l1 -88 -37 0 c-31 0 -44 6 -68 35 -25 29 -30 42 -28 82 2
27 3 51 4 54 0 4 29 6 64 5 l62 -1 2 -87z"/>
<path d="M2725 762 c2 -152 -1 -142 41 -142 28 0 35 4 33 18 -1 9 -1 38 0 65
l1 47 78 0 c66 0 82 3 97 20 18 20 17 20 -78 20 -97 0 -97 0 -97 25 0 25 1 25
83 25 76 0 107 9 107 31 0 3 -60 7 -133 7 l-133 1 1 -117z"/>
<path d="M527 486 c-3 -9 -1 -214 2 -239 1 -4 65 -6 144 -5 l142 3 0 60 c1 79
-1 84 -37 79 -40 -5 -40 -4 -40 -58 l0 -46 -69 0 -68 0 2 88 2 87 84 2 c69 1
88 5 104 21 19 20 18 20 -121 19 -93 0 -142 -4 -145 -11z"/>
<path d="M867 491 c-2 -3 -3 -60 -3 -126 l1 -120 38 -3 37 -3 0 55 0 56 64 0
64 0 0 -42 c0 -68 0 -68 37 -68 l36 0 -3 128 -3 127 -133 1 c-73 1 -134 -1
-135 -5z m199 -68 l1 -33 -63 0 c-64 0 -64 0 -64 28 0 39 6 43 69 40 56 -3 56
-3 57 -35z"/>
<path d="M1525 486 c-2 -6 -3 -64 -2 -128 l0 -118 140 0 140 0 -23 20 c-19 16
-37 20 -100 20 -73 0 -78 1 -82 23 -8 43 -1 47 92 47 66 0 89 3 93 14 9 23 -2
26 -95 26 l-88 0 0 34 0 33 81 0 c68 0 84 4 101 21 l20 20 -137 -1 c-88 0
-138 -4 -140 -11z"/>
<path d="M1844 492 c-7 -4 -10 -55 -10 -127 l1 -120 38 -3 37 -3 0 110 0 111
67 -2 c65 -3 67 -4 68 -30 2 -28 1 -28 -57 -28 -32 0 -58 -3 -58 -8 0 -4 30
-40 68 -80 65 -72 68 -74 110 -70 l43 3 -44 50 c-44 49 -46 68 -5 57 18 -4 19
0 16 69 l-3 74 -131 2 c-71 1 -135 -1 -140 -5z"/>
<path d="M2169 496 c-1 -1 -2 -34 -3 -73 l-2 -73 102 0 101 0 -1 -36 -1 -37
-103 2 -103 2 18 -20 c16 -19 29 -21 139 -21 l122 0 4 53 c6 101 10 97 -103
97 l-99 0 0 34 0 34 79 0 c76 0 127 14 116 31 -3 7 -258 13 -266 7z"/>
<path d="M1184 368 l1 -123 38 -3 37 -3 0 70 c0 71 7 84 30 56 21 -25 49 -27
79 -6 16 12 32 21 35 21 3 0 6 -32 6 -71 l0 -70 37 3 37 3 0 113 c1 63 -2 118
-5 124 -4 6 -35 -10 -72 -36 -36 -25 -69 -46 -74 -46 -4 0 -37 20 -72 45 -36
25 -68 45 -71 45 -4 0 -6 -55 -6 -122z"/>
</g>
</svg>
